# xmcd
# 
# Track frame offsets:
#     150
#     9598
#     19246
#     37288
#     61115
#     80285
#     88094
#     139193
#     147438
#     160791
#     175495
#     186665
#     197978
#     224155
#     246140
#     266021
#     272507
#     299159
#     309155
#     338085
#     345433
# 
# Disc length: 4708
# 
# Revision: 3
# Processed by: cddbd v1.5.2PL0 Copyright (c) Steve Scherf et al.
# Submitted via: fre:ac v1.1beta1pre5
# 
DISCID=4b126215
DTITLE=Various Artist - ClassSet Millennium 01 - 1000-1500 - Gregorianik bis Frührenaissance
DYEAR=0
DGENRE=
TTITLE0=Gregorianischer Choral - Prolegendum: Dominus regnavit
TTITLE1=Gregorianischer Choral - Kirchweihe:Kyrie XIV
TTITLE2=Gregorianischer Choral - Ecce Agnus Dei - Die Reponsorien der Matutin an Weihnachten
TTITLE3=Hildegard von Bingen 1098-1179 - O vis aeterniatatis - IV. Antiphon - Caritas abundat
TTITLE4=Guiot de Dijon - Chanterai por mon corage
TTITLE5=Leonin ca. 1150-1210 - Magnus liber organi - Pascha nostrum immolatus (Communion)
TTITLE6=Perotin ca.1180-1225 - Sederunt principes
TTITLE7=Anonymus - In mari miserie - Dreistimmige Mottete
TTITLE8=Carmina Burana um 1250 - In taberna quando sumus
TTITLE9=Petrus de Cruce ca.1240-1298 - Aucun ont trouve - Dreistimmige Mottete
TTITLE10=Adam de la Halle ca.1237-1287 - De ma dame vient - Dreistimmige Mottete
TTITLE11=Phillippe de Vitry 1291-13617 - Cum statua - Dreistimmige Mottete
TTITLE12=John Dunstable ca.1390-1456 - Veni sancte spiritus - Veni creator
TTITLE13=Guillaume de Machaut ca.1300-1377 - Messe de Nostre Dame: Sanctus
TTITLE14=Guillaume Dufay ca.1397-1474 - Bon jour, bon mois, bon an
TTITLE15=Josquin Desprez ca.1440-1521 - Adieu mes amours
TTITLE16=Josquin Desprez ca.1440-1521 - De profundis clamavi
TTITLE17=Josquin Desprez ca.1440-1521 - Baisez-moy, ma doulce amye
TTITLE18=Johannes Ockeghem ca.1425-1497 - Intemerata Dei mater
TTITLE19=Francisco de la Torre ca.1460-1505 - Adoramoste, Senor
TTITLE20=Heinrich Isaac ca.1450-1517 - Innsbruck, ich muss dich lassen
EXTD=
EXTT0=Chor der Mönche der Abtei Santo Domingo De Silos
EXTT1=Choralschola der Benediktinerabtei Münsterschwarzach - Frater Godehard Joppich
EXTT2=Schola des Klosters Montserrat - Pater Gregori Estrada
EXTT3=Schola der Benidiktinerinnenabtei St. Hildegard, Eibingen - Joh.Berchmans Göschl
EXTT4=Early Music Consort of London - David Munrow
EXTT5=Orlando Consort
EXTT6=Early Music Consort of London - David Munrow
EXTT7=Early Music Consort of London - David Munrow
EXTT8=New London Consort - Philip Pickett
EXTT9=Early Music Consort of London - David Munrow
EXTT10=Early Music Consort of London - David Munrow
EXTT11=Early Music Consort of London - David Munrow
EXTT12=Pomerium
EXTT13=Pro Musica Antiqua - Safford Cape
EXTT14=Pomerium
EXTT15=Piffaro
EXTT16=Pomerium
EXTT17=Piffaro
EXTT18=Pomerium
EXTT19=Piffaro
EXTT20=Collegium Musicum Saarbrücken
PLAYORDER=
